<svg xmlns="http://www.w3.org/2000/svg" xmlns:xlink="http://www.w3.org/1999/xlink" aria-hidden="true" focusable="false" height="52px" version="1.1" viewBox="0 0 210 52" width="210px">
    <g fill="none" fill-rule="evenodd" stroke="none" stroke-width="1">
        <g>
            <g>
                <g transform="translate(158.000000, 0.000000)">
                    <rect fill="#FFFFFF" height="52" width="52" x="0" y="0"></rect>
                    <path d="M43.4099219,26.2069901 C44.114532,26.7331031 44.8497772,27.1044769 44.8497772,27.9400682 C44.8497772,28.1876508 44.5434251,28.4352334 43.8694502,28.4352334 C43.3486515,28.4352334 42.7972175,28.2804942 42.5215006,27.9091204 C42.307054,27.6305899 42.6134062,27.2282682 42.4295949,26.9497378 C42.2764188,26.7021552 41.9700666,26.8259465 41.7556201,26.7021552 C41.5105383,26.5474161 41.4799031,26.4545726 41.2960918,26.0831988 C41.1122805,25.6499292 40.4689409,24.9381293 39.7030604,24.1644337 C39.0597208,23.5145294 38.3857459,23.1741033 38.0793937,23.2050511 C37.8649472,23.235999 37.8036767,23.235999 37.5892302,23.235999 C37.0377963,23.235999 36.578268,23.762112 35.7817523,24.102538 C35.2303183,24.3501206 34.9239661,24.4739119 34.5869787,24.5358076 L34.4644378,24.6905467 L35.1690479,24.6595989 C35.8430227,24.6595989 36.7008088,24.5667554 37.3747837,24.5667554 C38.0487585,24.5667554 38.3857459,25.1857119 38.6614629,25.8356162 C39.1822616,27.1354248 39.9481421,29.023242 40.8978339,30.601581 C41.3573622,31.3443288 41.7249849,31.8085462 41.7249849,32.7369809 C41.7249849,33.0155113 41.6943496,33.417833 41.326727,33.417833 C40.8059283,33.417833 39.4886138,32.8607722 39.4886138,32.2727635 C39.4886138,31.8085462 39.8562365,31.6228592 39.8562365,31.1586419 C39.8562365,30.8801114 39.4273434,30.9110593 39.3354377,30.6634767 C38.9984503,29.2708246 38.6001925,27.8781725 37.834312,27.0425813 C37.4360541,26.6093118 37.3747837,26.4236248 36.9765258,26.4236248 C36.7620793,26.4236248 36.5476327,26.4855205 36.3638214,26.5474161 C35.2915887,26.9497378 33.8517334,28.1876508 32.0442555,28.7137638 C31.3702806,28.9303985 31.2477398,28.5280768 30.5431297,28.6518681 L30.6044002,28.6518681 C30.022331,28.7756594 29.5934379,29.1160855 28.7969222,29.3327203 C27.7246895,29.6421985 25.8559411,29.7969376 24.3548154,29.5803028 C23.2825827,29.4255637 21.9039978,29.208929 21.3219286,29.2398768 C20.8624003,30.5396854 19.9127085,32.2727635 18.4728532,32.9536156 C17.7069727,33.2940417 17.4925262,33.7582591 17.7069727,34.6247981 C17.9826897,35.707972 18.9323815,36.4816676 19.422545,37.4101023 C19.8820733,38.1837979 20.6173186,39.4526586 21.3831991,39.8549804 C22.1490796,40.2573021 22.6392431,40.8453107 22.6392431,41.3714237 C22.6392431,41.6190063 22.5473374,41.7427976 22.3022557,41.7427976 L20.7398595,41.7427976 C20.4947777,41.7427976 20.3722368,41.5880585 20.3416016,41.495215 C20.1271551,41.0928933 20.2803312,40.7215194 19.973979,40.3501455 C19.7595324,40.102563 19.6063563,40.1644586 19.3306394,39.9478238 C18.8711111,39.4836065 19.2080985,39.2360239 18.8711111,38.6480152 C17.890784,37.0696762 17.461891,36.6983023 16.63474,35.5532328 C16.1752117,34.9652242 15.5931426,34.655746 15.5931426,33.8820504 C15.5931426,32.9226678 16.5428344,32.7679287 16.5121992,31.8085462 C15.8994948,32.2727635 15.1948847,32.6131896 14.0920168,32.7679287 C13.9388407,32.7988765 13.5712181,33.0774069 13.418042,33.2630939 C13.0504194,33.6344678 12.8972433,34.0367895 12.8359728,34.5938503 C12.7134319,35.8936589 12.4683502,37.1934675 12.6215263,38.4932761 C12.8359728,39.3288674 12.9891489,39.6073978 13.6631237,40.0716151 C14.0920168,40.3501455 14.5821803,40.7524673 14.6434508,41.3714237 C14.6434508,41.5261628 14.5821803,41.7427976 14.3677338,41.7427976 L12.6827967,41.7427976 C12.5296206,41.7427976 12.3764445,41.6190063 12.3151741,41.5261628 C12.1313628,41.1857368 12.2539036,40.969102 12.161998,40.5667803 C12.0088219,39.7930847 11.1204005,39.8240325 11.1204005,39.0193891 C11.1204005,38.7718065 11.2735766,38.4623283 11.2735766,37.9671631 C11.3348471,36.8839893 11.6411993,35.0890155 11.3348471,32.9536156 C11.181671,31.7157027 12.4683502,31.653807 13.142325,30.5706332 C13.5405829,29.9516767 13.418042,30.1992593 13.6631237,29.7659898 C13.9082055,29.3017724 13.8469351,28.9613464 13.8162998,28.682816 C13.8162998,28.3114421 13.4486772,27.5686943 13.693759,26.0213031 C13.7856646,25.340451 14.122652,24.628651 14.5821803,24.0406424 C14.5821803,24.0096946 14.5821803,23.9168511 14.4290042,23.9168511 C13.7550294,23.9787467 13.7550294,23.7930598 13.3261363,23.7930598 C12.8972433,23.7930598 12.5602558,24.1644337 12.4989854,24.3501206 C12.2845389,24.2572771 12.1926332,24.0096946 12.1926332,23.8859033 C12.1926332,23.6383207 12.2539036,23.4216859 12.4683502,23.2050511 C12.5602558,23.1122077 12.4683502,23.050312 12.3458093,23.050312 C11.8250106,23.050312 11.3348471,23.7002163 11.2123062,24.1334859 C10.905954,24.0715902 10.8753188,23.6692685 10.7527779,23.6692685 C10.5996018,23.6692685 10.5076961,23.8859033 10.5076961,24.102538 C10.5076961,25.6189814 12.9585137,25.9594075 12.9585137,27.971016 C12.9585137,30.2921028 10.2013439,29.7969376 10.2013439,30.6325289 C10.2013439,30.787268 10.3238848,30.9420071 10.5383313,31.0348506 C10.4464257,31.2514853 10.2013439,31.3443288 9.95626218,31.3443288 C9.34355779,31.3443288 8.88402949,30.8801114 8.88402949,30.261155 C8.88402949,28.9922942 10.5689666,28.9613464 10.5689666,28.0019638 C10.5689666,27.5377465 10.2932496,27.4139552 10.0175326,27.1973204 C8.4245012,26.0522509 7.50544461,24.9071814 7.50544461,23.0193642 C7.50544461,20.9768078 8.91466471,19.4294166 10.7221427,19.4294166 C13.3567715,19.4294166 13.4486772,22.524199 15.8382243,22.7717816 C16.7266457,22.1528251 17.7988784,21.7814512 18.8404758,21.7814512 C20.402872,21.7814512 21.0768469,22.183773 22.7311487,22.183773 C23.4051236,22.183773 24.5079915,21.998086 25.8253059,21.0696513 C26.3154694,20.7292252 26.529916,20.6673296 26.9894442,20.2650079 C28.0310417,19.367521 29.0113687,17.603495 29.0113687,16.3346342 L29.0113687,16.3965299 C29.0113687,15.9942082 28.9194631,15.7466256 28.7356518,15.7466256 C28.1842178,15.7466256 27.6634191,16.2727386 27.1119851,16.8297994 C26.7443625,17.2011733 27.2957964,17.3868603 26.4992807,17.8201298 C26.2235638,17.9748689 25.8865763,17.6963385 25.5802241,17.6963385 C24.9368845,17.6963385 24.6611676,16.9226429 24.6611676,16.2727386 C24.6611676,15.9323125 24.9062493,15.8394691 25.0594254,15.5299908 C25.3964128,14.8800865 25.3657776,14.6325039 25.6721298,14.0135475 C25.8559411,13.5802779 26.1929285,13.3017475 26.1622933,12.9922693 C26.1622933,12.868478 26.0703877,12.8065823 26.0703877,12.682791 C26.0703877,12.0328867 26.9281738,11.5996172 26.9281738,10.9497129 C26.9281738,10.578339 26.529916,10.4235999 26.4380103,10.1450695 C26.3461046,9.86653907 26.4073751,9.7736956 26.4073751,9.7736956 C26.4380103,9.71179995 26.4686455,9.71179995 26.529916,9.71179995 C26.8669034,9.71179995 26.9894442,10.0831738 27.2957964,10.2688608 C27.3264317,9.83559124 27.1732556,9.74274777 27.1732556,9.43326953 C27.1732556,9.27853041 27.1426203,9 27.3264317,9 C27.5408782,9 27.510243,9.27853041 27.6940543,9.43326953 C27.9391361,9.61895648 28.1535826,9.58800865 28.3986643,9.7736956 C28.7356518,9.99033036 28.9194631,10.3617042 29.042004,10.3617042 C29.3789914,10.4235999 29.470897,9.99033036 29.2870857,9.7736956 C29.6547083,9.74274777 30.0529662,10.052226 30.5431297,10.052226 C31.3090102,10.052226 31.5847272,10.2688608 31.7379033,10.3926521 C32.2280668,10.8259216 32.3199724,11.1663477 32.8714064,11.1663477 C33.1471234,11.1663477 33.3002995,10.9187651 33.3615699,10.8259216 C33.7291925,11.104452 33.7598278,11.816252 33.3615699,12.4352084 C33.514746,12.9303736 34.2193561,12.9922693 34.5563435,13.2398519 C34.8933309,13.4874345 34.8320605,13.6112258 35.0771422,13.735017 C35.2609535,13.8588083 35.4447648,13.8278605 35.5673057,13.735017 C35.7204818,14.4158692 35.1690479,15.0038778 34.4644378,15.0967213 C34.495073,15.9632604 35.3834944,16.4893734 35.7817523,16.7060081 C35.5366705,17.2321211 35.1077774,17.3868603 34.7401548,17.4797037 C34.8626957,18.0058167 35.4141296,18.7795123 35.1384126,19.4603645 C34.8933309,19.3365732 34.495073,19.4603645 34.495073,19.8317383 C34.495073,20.2650079 35.046507,20.4816426 34.4644378,20.7911209 C34.2193561,20.94586 34.1580856,21.3172339 34.6176139,21.6886078 C35.2303183,21.5338687 35.8123875,21.5338687 36.5169975,21.5338687 C36.9458906,21.5338687 37.4973246,21.4100774 37.8955824,21.4100774 C38.6001925,21.4100774 39.0290855,21.6886078 39.5498843,22.2766164 C40.8671987,23.6692685 42.0619723,25.1857119 43.4099219,26.2069901" fill="#231F20" fill-rule="nonzero"></path>
                    <path d="M8.33259554,22.4004077 C8.60831252,22.4004077 9.12911125,20.8220687 10.2013439,20.8220687 C10.5076961,20.8220687 10.5689666,20.94586 10.5689666,21.0696513 C10.5689666,21.2862861 10.2013439,21.471973 10.2013439,21.7505034 C10.2013439,21.8123991 10.2319792,21.8742947 10.3238848,21.8742947 C10.5689666,21.8742947 10.7834131,21.2862861 11.8250106,21.2862861 C12.1007275,21.2862861 12.3458093,21.3172339 12.5908911,21.3791295 C12.7134319,21.4100774 12.9585137,21.5338687 12.8359728,21.1934426 C12.5908911,20.4506948 11.7637401,19.7698427 10.630237,19.7698427 C9.49673388,19.7698427 8.30196032,20.7911209 8.17941944,22.0290338 C8.21005466,22.2456686 8.21005466,22.4004077 8.33259554,22.4004077" fill="#6D6E70" fill-rule="nonzero"></path>
                    <path d="M27.9391361,12.5589997 C27.6327839,12.4352084 27.5715134,12.2804693 27.6940543,11.8781476 C27.7553247,11.4758259 27.78596,11.290139 27.6021486,11.2591911 C27.4489725,11.1972955 27.234526,11.3210868 27.0200795,11.5377216 C26.8362682,11.7853041 26.529916,12.1257302 26.4380103,12.3733128 C26.3461046,12.7137389 26.7443625,12.6518432 26.4686455,13.208904 C25.978482,14.1063909 25.8559411,14.3230257 25.6108594,14.9419822 C25.3964128,15.6228343 25.2432367,15.7156778 25.1206959,15.9323125 C24.9675198,16.1179995 25.3045072,16.1489473 25.6721298,16.025156 C26.0703877,15.8704169 26.1010229,16.3655821 25.9478468,16.7060081 C25.8253059,16.9535907 25.9172116,17.0464342 26.254199,16.7679038 C26.5605512,16.5203212 26.1010229,16.3346342 26.1929285,15.5609387 C26.3154694,14.8800865 26.4380103,14.4777648 26.8669034,13.7969127 C27.234526,13.208904 27.5408782,12.7756345 28.1535826,12.9922693 C28.3986643,13.1160606 28.2761235,12.7137389 27.9391361,12.5589997" fill="#6D6E70" fill-rule="nonzero"></path>
                    <path d="M41.0816452,32.8298243 C41.2041861,32.8298243 41.2348213,32.6750852 41.2348213,32.5203461 C41.2348213,32.17992 41.05101,31.6847549 40.775293,31.4681201 C40.7140226,31.9632853 40.4689409,32.3037113 40.4689409,32.5203461 C40.4689409,32.6750852 40.9284691,32.8298243 41.0816452,32.8298243" fill="#6D6E70" fill-rule="nonzero"></path>
                    <path d="M44.0226263,28.0329117 C44.2064376,28.0329117 44.4821546,27.971016 44.4821546,27.8162769 C44.4821546,27.5377465 44.0532615,27.0425813 43.6856389,26.91879 C43.9307207,27.4139552 43.6856389,28.0329117 44.0226263,28.0329117" fill="#6D6E70" fill-rule="nonzero"></path>
                    <path d="M31.0332932,21.5029208 C33.6985573,22.7408338 33.5453812,25.0000249 33.7598278,24.4429641 C33.8517334,24.1953815 34.2193561,23.0812598 33.2696643,21.998086 C32.534419,21.1315469 32.258702,21.3481817 32.534419,20.6363818 C33.6985573,17.789182 34.4338026,13.4874345 30.9413876,12.0019389 C30.5431297,11.8471998 30.2061423,11.8471998 30.2061423,11.9090954 C30.2061423,11.9709911 30.5737649,12.0947824 31.0332932,12.4042606 C33.3615699,13.9516518 32.6263246,18.1915037 30.5124945,20.2340601 C29.8385197,20.94586 30.1755071,21.1005991 31.0332932,21.5029208" fill="#6D6E70" fill-rule="nonzero"></path>
                    <path d="M21.9039978,41.3095281 C22.0878091,41.3095281 21.9959035,41.0309977 21.934633,40.9072064 C21.7814569,40.628676 21.4751047,40.442989 21.1993878,40.3191977 C21.2606582,40.5977281 21.2912934,41.3095281 21.5670104,41.3095281 L21.9039978,41.3095281" fill="#6D6E70" fill-rule="nonzero"></path>
                    <path d="M13.8469351,41.3095281 C14.0307464,41.3095281 13.9082055,41.0309977 13.8162998,40.9072064 C13.6631237,40.628676 13.3261363,40.442989 13.0504194,40.3191977 C13.1116898,40.5977281 13.1729602,41.3095281 13.4486772,41.3095281 L13.8469351,41.3095281" fill="#6D6E70" fill-rule="nonzero"></path>
                    <path d="M23.6195701,25.1238162 C25.0900606,24.9690771 25.3351424,24.628651 25.5802241,23.5145294 C25.702765,22.9884164 26.0703877,22.4313555 26.4073751,22.0909295 C26.6218216,21.8433469 26.8362682,21.6576599 27.0507147,21.3172339 C27.1119851,21.1624948 27.1732556,21.0696513 27.0507147,21.1005991 C26.8975386,21.2243904 26.3767399,21.5648165 26.1622933,21.7195556 C25.1206959,22.4623034 23.5276644,22.8027294 22.91496,22.8027294 C21.5670104,22.8027294 20.402872,22.4004077 19.1774633,22.4004077 C15.5012369,22.4004077 14.122652,25.3095032 14.3064634,27.0116335 C14.3370986,27.2901639 14.3677338,27.2901639 14.4596395,27.2901639 C14.7047212,27.2901639 14.949803,26.2998335 15.8688596,25.4023466 C17.2168092,24.102538 18.6872997,23.3597903 20.7704947,23.3597903 C22.2716204,23.3597903 22.91496,23.8549554 22.91496,24.0406424 C22.91496,24.4120163 22.2716204,24.4429641 22.3328909,24.814338 C22.3022557,24.9690771 22.6392431,25.2476075 23.6195701,25.1238162" fill="#6D6E70" fill-rule="nonzero"></path>
                </g>
                <g fill="#FFFFFF" transform="translate(0.000000, 19.000000)">
                    <polygon points="133.507231 7.2192542 140.376075 0.156427803 136.872879 0.156427803 130.692319 6.77575003 130.63163 6.77575003 130.627996 0.156066496 128.03912 0.156066496 128.04021 14.8928698 130.63163 14.8928698 130.63163 7.74314914 130.692319 7.74314914 137.277527 14.8928698 140.955883 14.8928698"></polygon>
                    <polygon points="124.914771 0.156481999 122.303182 0.156481999 122.305726 10.7879362 122.264843 10.7879362 116.007786 0.156481999 112.61452 0.156481999 112.61452 14.8927434 115.149794 14.8927434 115.149794 3.91660243 115.190495 3.91660243 121.590187 14.8927434 124.913681 14.8927434"></polygon>
                    <path d="M103.689111,9.51553991 C102.896712,9.51228815 102.176449,9.46260846 101.406764,9.31447265 L103.689111,3.48948354 L105.971821,9.31447265 C105.202317,9.46260846 104.481327,9.51228815 103.689111,9.51553991 M103.689111,11.7596168 C104.770232,11.7552811 105.847901,11.6551991 106.787295,11.397226 L108.156776,14.8928698 L111.224071,14.8928698 L104.824015,0.156427803 L102.554569,0.156427803 L96.1548773,14.8928698 L99.2214456,14.8928698 L100.590926,11.397226 C101.530866,11.6551991 102.608535,11.7552811 103.689111,11.7596168"></path>
                    <path d="M92.5466037,7.12858424 L92.5466037,7.08739526 C94.119953,6.62040615 95.1222159,5.52203331 95.1222159,3.79462524 C95.1222159,1.19267393 92.8120689,0.156084561 90.5835058,0.156084561 L84.7977816,0.156084561 L84.7977816,14.8928879 L90.1541463,14.8928879 C92.9339903,14.8941525 95.7556256,13.7545906 95.7556256,10.7057028 C95.7556256,8.63270468 94.4677287,7.39306086 92.5466037,7.12858424 L92.5466037,7.12858424 Z M87.4346269,2.37089558 L89.5612558,2.37089558 C91.5437957,2.37089558 92.4848254,2.83914926 92.4848254,4.14003459 C92.4848254,5.4212287 91.5437957,6.15269443 89.7863834,6.15269443 L87.4346269,6.15269443 L87.4346269,2.37089558 Z M89.8063705,12.6780769 L87.4346269,12.6780769 L87.4346269,8.3886419 L89.9088499,8.3886419 C92.0145831,8.3886419 93.1184169,8.93764766 93.1184169,10.4421294 C93.1184169,12.4137809 91.2174607,12.6780769 89.8063705,12.6780769 L89.8063705,12.6780769 Z"></path>
                    <path d="M71.7225027,6.19285368 C70.3550207,5.76596963 69.5822463,5.52208751 69.0742102,5.19673069 C68.5669009,4.87191582 68.4120916,4.50591198 68.4120916,4.09944177 C68.4120916,3.48973645 68.7656818,3.08326624 69.2731728,2.83920346 C69.7804821,2.59532133 70.508013,2.49397476 71.1047192,2.49397476 C72.0539254,2.49397476 73.1940994,2.71509455 74.3417231,3.08850519 L75.2751213,0.948665343 C74.1493017,0.379426393 72.6057514,0.0336557335 71.1490543,0.0336557335 C69.6703713,0.0336557335 68.3457707,0.399659577 67.3981999,1.03032069 C66.2721986,1.78238091 65.6765826,2.8599786 65.6765826,4.20151095 C65.6765826,6.72180692 67.8164756,7.71811057 69.9345646,8.38887675 C70.8181767,8.67358655 71.7225027,8.91656541 72.3404679,9.28329186 C72.9360839,9.62852056 73.289129,10.0964129 73.289129,10.7265321 C73.289129,11.4175315 72.8475955,11.9052957 72.4289563,12.1495391 C71.9212836,12.4539402 71.0829151,12.5964757 70.2221973,12.5964757 C68.2358416,12.5964757 66.8231161,11.8438735 65.8312102,11.132641 L64.8453004,13.3850279 C66.1023081,14.3271356 68.2358416,15.0560721 70.3762798,15.0560721 C73.6201883,15.0560721 76.1136715,13.3487166 76.1136715,10.5839965 C76.1136715,8.10452825 74.1051483,6.94545586 71.7225027,6.19285368"></path>
                    <path d="M56.148017,0.156138757 L51.7110595,0.156500064 L51.7110595,14.8927614 L56.4341961,14.8927614 C60.8093753,14.8942067 64.0391111,11.8241823 64.0391111,7.41262562 C64.0391111,3.08326624 60.9516472,0.156138757 56.148017,0.156138757 M56.4341961,12.3114046 L54.3895144,12.3114046 L54.3895144,2.73785689 L56.1685492,2.73785689 C59.2552863,2.73785689 61.2385531,4.42479859 61.2385531,7.43376208 C61.2385531,10.2994674 59.4391678,12.3114046 56.4341961,12.3114046"></path>
                    <path d="M43.0137398,7.43184715 C44.6717617,5.03945381 45.8847978,3.06960884 46.8957823,0.156572325 L50.0095929,0.156572325 C48.5534409,3.83305022 46.8354576,6.70796887 44.4088403,10.0247658 L44.4088403,14.8928337 L41.6184576,14.8928337 L41.6184576,10.0247658 C39.1918403,6.70796887 37.4740388,3.83305022 36.0178867,0.156572325 L39.1315156,0.156572325 C40.1426818,3.06960884 41.3557179,5.03945381 43.0137398,7.43184715"></path>
                    <path d="M28.6794,0 C24.1490482,0 21.1424412,3.35328892 21.1424412,7.55510698 C21.1424412,11.6960448 24.0674644,15.0495144 28.6181668,15.0495144 C33.1490637,15.0495144 36.1358652,11.6960448 36.1358652,7.49440743 C36.1358652,3.33269443 33.1897647,0 28.6794,0 M28.6388807,12.5234375 C25.632092,12.5234375 23.904842,10.3223562 23.904842,7.51464061 C23.904842,4.72679693 25.632092,2.52463165 28.6181668,2.52463165 C31.6456693,2.52463165 33.3723742,4.78713517 33.3723742,7.55510698 C33.3723742,10.3223562 31.6456693,12.5234375 28.6388807,12.5234375"></path>
                    <polygon points="11.4406964 14.8927976 19.7678729 14.8927976 20.6743794 12.2707937 14.1602157 12.2707937 14.1602157 0.156536195 11.4406964 0.156536195"></polygon>
                    <polygon points="0 14.8927976 8.32699485 14.8927976 9.23368299 12.2707937 2.71933763 12.2707937 2.71933763 0.156536195 0 0.156536195"></polygon>
                </g>
            </g>
        </g>
    </g>
</svg>